<?xml version="1.0" encoding="utf-8"?>
<!-- Generator: Adobe Illustrator 19.2.1, SVG Export Plug-In . SVG Version: 6.00 Build 0)  -->
<svg version="1.1" id="Ebene_1" xmlns="http://www.w3.org/2000/svg" xmlns:xlink="http://www.w3.org/1999/xlink" x="0px" y="0px"
	 width="215.4px" height="19.8px" viewBox="0 0 215.4 19.8" style="enable-background:new 0 0 215.4 19.8;" xml:space="preserve">
<style type="text/css">
	.st0{enable-background:new    ;}
	.st1{fill:#C5CAD8;}
</style>
<g class="st0">
	<path class="st1" d="M3,16.8c0.9-0.4,1.3-0.9,1.3-1.9c0.2-1.5,0.2-2.8,0.2-4.9V7.4c0-1.9,0-3.4-0.2-4.9c0.4,0,0.9,0.2,1.5,0.2
		s1.1,0,1.5-0.2C7.1,4,7.1,5.3,7.1,7.4v2.4c0,0.9,0,2.1,0,3.2c0,2.8-1.3,4.1-3.9,4.5L3,16.8z"/>
	<path class="st1" d="M19.9,14.9c-0.6,0-1.1-0.2-1.5-0.2s-1.1,0-1.5,0.2c-0.4-1.3-0.9-2.4-1.3-3.6c-0.9,0-1.5,0-2.4,0
		c-0.6,0-1.3,0-1.7,0c-0.4,1.3-0.9,2.4-1.3,3.6c-0.2,0-0.6-0.2-0.9-0.2c-0.2,0-0.6,0-0.9,0.2C9.5,13,12,6.6,13.8,2.5
		c0.2,0,0.4,0.2,0.6,0.2c0.2,0,0.4,0,0.6-0.2C16.7,6.6,18.4,12.1,19.9,14.9z M15.4,10.2c-0.4-1.3-1.1-2.8-1.5-4.3
		c-0.6,1.3-1.3,2.8-1.7,4.3H15.4z"/>
	<path class="st1" d="M21.9,7.4c0-1.9,0-3.4-0.2-4.9c0.4,0,0.9,0.2,1.5,0.2c1.1,0,2.1-0.2,3.2-0.2c2.1,0,3.6,0.9,3.6,2.8
		s-1.9,2.8-3,3l0,0c1.1,0,3.2,0.9,3.2,3c0,2.6-1.9,3.4-4.1,3.4c-0.9,0-1.7-0.2-2.6-0.2c-0.6,0-1.3,0-1.7,0.2C22,13.2,22,11.9,22,9.8
		L21.9,7.4L21.9,7.4z M25.3,3.6c-0.4,0-0.6,0-0.9,0c0,0.9,0,1.9,0,2.6s0,1.3,0,1.7h0.9c1.1,0,1.9-0.9,1.9-2.4
		C27.2,4.6,26.6,3.6,25.3,3.6z M25.1,8.9c-0.2,0-0.6,0-0.9,0c0,0.4,0,0.9,0,1.7c0,1.3,0,2.6,0,3.2c0.2,0,0.6,0,0.9,0
		c1.3-0.2,2.1-1.1,2.1-2.6C27.4,9.8,26.6,8.9,25.1,8.9z"/>
	<path class="st1" d="M45.8,2.3c1.7,4.1,4.3,10.5,5.4,12.6c-0.2,0-0.6-0.2-0.9-0.2s-0.6,0-0.9,0.2c-0.2-1.3-1.3-3.2-1.7-4.7
		c-0.9,0-1.5,0-2.4,0s-1.3,0-2.1,0c-0.9,1.7-1.3,3.6-1.7,4.7c-0.2,0-0.4-0.2-0.6-0.2c-0.2,0-0.4,0-0.6,0.2
		C42.2,10.8,44.1,6.6,45.8,2.3L45.8,2.3z M45.2,4.9l-1.9,4.5c0.6,0,1.3,0,1.9,0s1.3,0,1.9,0L45.2,4.9z"/>
	<path class="st1" d="M64.5,15.1c-2.8-3.2-6-6.6-9-9.8c0,0.6,0,1.7,0,3.6c0,1.5,0,5.3,0.2,6c-0.2,0-0.4-0.2-0.6-0.2
		c-0.2,0-0.4,0-0.6,0.2c0.2-0.9,0.4-5.3,0.4-7.7s0-3.8,0-4.7h0.2c2.8,3.2,6.9,7.5,9,9.4c0-3.2,0-6.6-0.2-9.4c0.2,0,0.4,0.2,0.6,0.2
		s0.4,0,0.6-0.2c0,1.1-0.2,4.5-0.2,6c0,1.7,0,5.8,0,6.4h-0.4C64.5,14.9,64.5,15.1,64.5,15.1z"/>
	<path class="st1" d="M69.2,12.5c0.4,0.9,1.3,1.7,2.8,1.7c1.7,0,2.6-1.3,2.6-2.6c0-3.4-5.6-1.7-5.6-6c0-1.9,1.5-3.4,3.9-3.4
		c1.3,0,1.9,0.2,2.6,0.9C75.2,3.6,75,4,75,4.6h-0.2c-0.2-0.6-0.9-1.7-2.1-1.7c-1.3,0-2.4,0.9-2.4,2.1c0,3.4,5.6,1.9,5.6,6
		c0,2.1-1.7,3.8-4.3,3.8c-1.5,0-2.4-0.4-2.8-1.1C69.2,13.2,69.2,13,69.2,12.5C69,12.5,69.2,12.5,69.2,12.5z"/>
	<path class="st1" d="M82.3,7.2c0-1.3,0-2.4,0-3.8c-1.3,0-2.8,0-3.9,0.2c0-0.2,0.2-0.4,0.2-0.6c0-0.2,0-0.4-0.2-0.6
		c1.5,0,3,0.2,4.5,0.2s3,0,4.5-0.2c0,0.2-0.2,0.4-0.2,0.6c0,0.2,0,0.4,0.2,0.6c-0.9-0.2-2.6-0.2-3.9-0.2c0,1.3,0,2.4,0,3.8v3
		c0,1.5,0,3,0.2,4.5c-0.2,0-0.6-0.2-0.9-0.2s-0.6,0-0.9,0.2c0-1.5,0.2-3,0.2-4.5L82.3,7.2L82.3,7.2z"/>
	<path class="st1" d="M96,2.3c3.9,0,6.6,2.4,6.6,6.4c0,3.8-2.8,6.4-6.6,6.4s-6.6-2.4-6.6-6.4C89.3,4.9,91.9,2.3,96,2.3z M96,3.1
		c-2.8,0-4.9,1.7-4.9,5.8c0,3.8,2.1,5.8,4.9,5.8s4.9-1.7,4.9-5.8C100.7,4.9,98.5,3.1,96,3.1z"/>
	<path class="st1" d="M106.3,7.2c0-1.5,0-3-0.2-4.5c1.1,0,2.1,0.2,3.2,0.2s2.1,0,3.2-0.2c0,0.2,0,0.4,0,0.6c0,0.2,0,0.4,0,0.6
		c-1.5-0.2-2.4-0.2-4.7-0.2c0,0.9,0,1.3,0,2.4c0,0.9,0,1.9,0,2.4c2.1,0,3.4-0.2,4.3-0.2c0,0.2,0,0.4,0,0.6s0,0.4,0,0.6
		c-1.3-0.2-3.4-0.2-4.3-0.2c0,0.4,0,0.9,0,2.6c0,1.3,0,2.4,0,2.8c1.5,0,3.9,0,4.9-0.2c0,0.2,0,0.2,0,0.4s0,0.4,0,0.4
		c-1.1,0-2.1-0.2-3.2-0.2s-2.1,0-3.2,0.2c0-1.5,0.2-3.2,0.2-4.7L106.3,7.2L106.3,7.2z"/>
	<path class="st1" d="M118.9,7.2c0-1.3,0-2.4,0-3.8c-1.3,0-2.8,0-3.9,0.2c0-0.2,0.2-0.4,0.2-0.6c0-0.2,0-0.4-0.2-0.6
		c1.5,0,3,0.2,4.5,0.2s3,0,4.5-0.2c0,0.2-0.2,0.4-0.2,0.6c0,0.2,0,0.4,0.2,0.6c-0.9-0.2-2.6-0.2-3.9-0.2c0,1.3,0,2.4,0,3.8v3
		c0,1.5,0,3,0.2,4.5c-0.2,0-0.6-0.2-0.9-0.2c-0.2,0-0.6,0-0.9,0.2c0-1.5,0.2-3,0.2-4.5L118.9,7.2L118.9,7.2z"/>
	<path class="st1" d="M126.4,14.7c2.8-3.8,6.9-9.6,7.7-11.1c-0.4,0-0.9,0-1.3,0c-1.7,0-4.3,0.2-5.8,0.2c0-0.2,0.2-0.4,0.2-0.6
		s0-0.4-0.2-0.6c1.3,0.2,3.9,0.2,7.5,0.2c0.6,0,1.3,0,1.9-0.2v0.2c-1.3,1.5-6.9,9.4-7.9,11.1c0.6,0,1.1,0,1.5,0
		c1.7,0,5.1-0.2,6.2-0.2c0,0.2-0.2,0.4-0.2,0.6s0,0.4,0.2,0.6c-1.7,0-2.8-0.2-4.3-0.2C130.2,14.7,127,14.7,126.4,14.7L126.4,14.7
		L126.4,14.7z"/>
	<path class="st1" d="M156.2,4.9c-0.9-0.9-2.1-1.7-3.9-1.7c-2.8,0-5.4,1.7-5.4,5.8c0,3.4,1.9,5.6,5.4,5.6c1.1,0,2.4-0.2,2.8-0.6
		c0-0.9,0-1.3,0-2.1c0-0.9,0-1.7-0.2-2.4c0.2,0,0.6,0.2,0.9,0.2s0.6,0,0.9-0.2c0,0.6,0,1.7,0,3.6c0,0.4,0,0.9,0,1.3
		c-1.1,0.4-3.2,0.9-4.5,0.9c-4.3,0-6.9-2.1-6.9-6.4c0-4.1,2.8-6.4,6.9-6.4c2.4,0,3.9,0.6,4.5,1.1C156.6,3.8,156.4,4.4,156.2,4.9
		C156.4,4.9,156.2,4.9,156.2,4.9z"/>
	<path class="st1" d="M161.1,7.2c0-1.5,0-3-0.2-4.5c0.6,0,1.3,0.2,1.9,0.2s1.3-0.2,1.9-0.2c1.9,0,3.9,0.9,3.9,2.8
		c0,2.4-2.4,3.2-3.6,3.4c0.9,1.1,3.9,4.9,4.9,6c-0.4,0-0.9-0.2-1.1-0.2c-0.2,0-0.9,0-1.1,0.2c-0.9-1.1-3-4.3-4.5-6h-0.6v1.3
		c0,1.5,0,3,0.2,4.5c-0.2,0-0.6-0.2-0.9-0.2c-0.2,0-0.6,0-0.9,0.2c0-1.5,0.2-3,0.2-4.5L161.1,7.2L161.1,7.2z M162.6,8.3
		c0.2,0,0.9,0.2,1.3,0.2c1.5,0,3.4-0.6,3.4-2.8c0-1.7-1.5-2.4-2.8-2.4c-0.9,0-1.3,0-1.7,0.2c0,1.3-0.2,2.6-0.2,3.8V8.3L162.6,8.3z"
		/>
	<path class="st1" d="M178.9,2.3c3.9,0,6.6,2.4,6.6,6.4c0,3.8-2.8,6.4-6.6,6.4s-6.6-2.4-6.6-6.4C172.2,4.9,175,2.3,178.9,2.3z
		 M178.9,3.1c-2.8,0-4.9,1.7-4.9,5.8c0,3.8,2.1,5.8,4.9,5.8c2.8,0,4.9-1.7,4.9-5.8C183.8,4.9,181.7,3.1,178.9,3.1z"/>
	<path class="st1" d="M198.6,2.7c0.2,0,0.4,0.2,0.9,0.2c0.2,0,0.4,0,0.6-0.2c-0.2,1.7-0.4,4.9-0.4,7.3c0,3.2-1.7,5.1-5.1,5.1
		c-3.4,0-5.1-1.7-5.1-5.1c0-1.1,0.2-1.9,0.2-2.8c0-1.9,0-3.6-0.2-4.5c0.2,0,0.6,0.2,0.9,0.2s0.6,0,0.9-0.2c-0.2,1.1-0.2,3.4-0.2,6
		c0,2.4,0,5.6,3.9,5.6s3.9-3.6,3.9-6C198.6,5.1,198.6,3.4,198.6,2.7z"/>
	<path class="st1" d="M204.4,7.2c0-1.5,0-3-0.2-4.5c0.6,0,1.3,0.2,1.7,0.2c0.6,0,1.7-0.2,2.1-0.2c1.1,0,3.9,0,3.9,3
		c0,3.2-3,3.8-4.9,3.8c-0.6,0-0.9,0-1.3,0v0.9c0,1.5,0,3,0.2,4.5c-0.2,0-0.6-0.2-0.9-0.2s-0.6,0-0.9,0.2c0-1.5,0.2-3,0.2-4.5
		L204.4,7.2L204.4,7.2z M205.9,8.5c0.4,0.2,0.9,0.2,1.3,0.2c1.5,0,3.4-0.6,3.4-2.8c0-1.9-1.3-2.4-3-2.4h-1.5v4.9h-0.2V8.5z"/>
</g>
</svg>
