<?xml version="1.0" encoding="utf-8"?>
<!-- Generator: Adobe Illustrator 18.1.1, SVG Export Plug-In . SVG Version: 6.00 Build 0)  -->
<svg version="1.1" id="Ebene_1" xmlns="http://www.w3.org/2000/svg" xmlns:xlink="http://www.w3.org/1999/xlink" x="0px" y="0px"
	 viewBox="0 0 283.5 215" style="enable-background:new 0 0 283.5 215;" xml:space="preserve">
<style type="text/css">
	.st0{fill:#FFFFFF;}
	.st1{fill-rule:evenodd;clip-rule:evenodd;fill:#FFFFFF;}
</style>
<g>
	<g>
		<path class="st0" d="M77.5,199.3c-1.1-1.3-3.2-2.6-5.9-2.6c-4.5,0-7.9,2.7-7.9,8.6c0,5.3,3,8.5,8,8.5c1.5,0,3.4-0.3,4.3-0.9
			c0-1.1,0.1-2.1,0.1-3.2c0-1.3-0.1-2.6-0.1-3.7c0.4,0.1,0.9,0.1,1.3,0.1c0.4,0,0.8,0,1.2-0.1c-0.1,0.8-0.1,2.6-0.1,5.5
			c0,0.7,0,1.5,0,2.2c-1.5,0.5-4.8,1.3-6.8,1.3c-6.4,0-10.4-3.3-10.4-9.6c0-6.1,4.1-9.6,10.5-9.6c3.6,0,5.6,0.9,6.9,1.6
			c-0.3,0.5-0.5,1.4-0.6,2.1H77.5z"/>
		<path class="st0" d="M99.1,203c0-2.3-0.1-4.6-0.2-7c1,0.1,2,0.1,3.1,0.1c1,0,2-0.1,3.1-0.1c3,0,5.6,1.1,5.6,4.2
			c0,3.5-3.5,4.9-5.5,5.1c1.3,1.6,5.8,7.4,7.4,9.2c-0.5-0.1-1.1-0.1-1.6-0.1c-0.5,0-1,0.1-1.6,0.1c-1.1-1.6-4.6-6.6-7-8.9h-1v2
			c0,2.3,0.1,4.6,0.2,7c-0.5-0.1-0.9-0.1-1.3-0.1c-0.4,0-0.9,0.1-1.3,0.1c0.1-2.3,0.2-4.7,0.2-7V203z M101.3,204.5
			c0.5,0.1,1.1,0.1,1.8,0.1c2.2,0,5.1-0.9,5.1-4.1c0-2.8-2.3-3.5-4.2-3.5c-1.2,0-2,0.1-2.6,0.1c-0.1,2-0.2,3.9-0.2,5.8V204.5z"/>
		<path class="st0" d="M140.2,195.7c5.9,0,10.1,3.5,10.1,9.6c0,6.1-4.1,9.6-10.1,9.6c-5.9,0-10-3.5-10-9.6
			C130.1,199.2,134.3,195.7,140.2,195.7z M140.2,196.6c-4.2,0-7.4,2.7-7.4,8.6c0,6,3.2,8.6,7.4,8.6c4.2,0,7.4-2.7,7.4-8.6
			C147.6,199.3,144.4,196.6,140.2,196.6z"/>
		<path class="st0" d="M184,196c0.3,0.1,0.7,0.1,1.1,0.1c0.3,0,0.6,0,0.8-0.1c-0.2,2.5-0.4,7.2-0.5,11.1c-0.1,4.8-2.8,7.7-7.7,7.7
			c-5.3,0-7.7-2.5-7.7-7.7c0-1.7,0.1-2.9,0.1-4.2c0-3-0.1-5.4-0.2-7c0.4,0.1,1,0.1,1.4,0.1c0.4,0,0.8,0,1.2-0.1
			c-0.2,1.6-0.3,5.2-0.3,9.2c0,3.7,0,8.4,6,8.4c5.9,0,5.9-5.5,5.9-8.9C184.1,199.6,184.1,197.1,184,196z"/>
		<path class="st0" d="M207.1,203c0-2.3-0.1-4.6-0.2-7c0.9,0.1,1.7,0.1,2.6,0.1c0.9,0,2.6-0.1,3.3-0.1c1.6,0,5.9,0.1,5.9,4.5
			c0,4.7-4.7,5.6-7.2,5.6c-0.8,0-1.5,0-2.2-0.1v1.5c0,2.3,0.1,4.6,0.2,7c-0.5-0.1-0.9-0.1-1.3-0.1c-0.4,0-0.9,0.1-1.3,0.1
			c0.1-2.3,0.2-4.7,0.2-7V203z M209.4,205c0.6,0.1,1.3,0.2,1.9,0.2c2.2,0,5-0.8,5-4.5c0-3.1-1.7-3.7-4.5-3.7h-2.4V205z"/>
	</g>
	<g>
		<rect y="117.9" class="st0" width="283.5" height="3.6"/>
	</g>
	<path class="st1" d="M127.3,38l12.9,31.6H117C117,69.6,127.3,37.9,127.3,38 M186.1,105.5h-42.9c0,0-0.1-0.4,0-0.4
		c5-0.7,7.6-8.2,5.7-13.6c0,0-7.4-18.4-7.4-18.4h-25.6c0,0-5.2,16.2-5.2,16.2c-2.5,7-0.6,13.8,5.5,15.9c0,0,0,0.4,0,0.4H91.6
		c0,0,0-0.4,0-0.4c6.7-1.8,12.3-8.8,14.9-15.9c1.6-4.2,28.6-89.3,28.6-89.3h0.2c1.8,4.5,37.2,91.8,37.2,91.8c3,7,7.2,10.5,13.6,13.4
		V105.5z"/>
	<path class="st1" d="M33.7,147.1c0.9,1.6,2.5,4.1,3.8,7.5c0.7-0.1,1.4-0.2,2.4-0.2c0.9,0,1.6,0.1,2.2,0.2
		c-0.1-0.1-8.4-14-11.3-20.1c-0.3,0.1-0.5,0.1-0.8,0.1c-0.4,0-0.6-0.1-0.9-0.1c-2.7,5.2-8.3,14.5-11.6,20.1c0.5-0.1,0.9-0.2,1.7-0.2
		c0.7,0,1.1,0.1,1.5,0.2c1.2-3.6,2.7-6.2,3.5-7.5H33.7z M33,145.7h-8l4-7.1L33,145.7z"/>
	<path class="st0" d="M55.5,139.8l7.3,5.8c0.6,0.5,1.3,1,1.9,1.4c2.6,1.9,8.3,6.6,9.5,7.7c0.3,0,0.4-0.1,0.6-0.1
		c0.2,0,0.4,0,0.7,0.1c-0.2-2-0.2-5.5-0.2-7.7c0-4.1,0-8.3,0.6-12.4c-0.5,0.1-1,0.2-1.6,0.2c-0.6,0-1.1-0.1-1.5-0.2
		c0.5,4.2,0.5,6.7,0.5,14v1.1c-4.8-3.7-5.6-4.4-13.1-10.4c-2.3-1.8-3.2-2.6-4.2-3.5l-1.2-1.1c-0.3,0-0.6,0.1-0.8,0.1
		c-0.2,0-0.4,0-0.6-0.1v3.4c0,1,0.1,6,0.1,7.2c0,3-0.3,7.9-0.5,9.3c0.5-0.1,0.8-0.2,1.5-0.2c0.7,0,1.1,0.1,1.6,0.2
		c-0.3-4.4-0.5-6.1-0.6-13V139.8z"/>
	<path class="st0" d="M104.6,138.4c0.1-1,0.8-2.1,1.1-2.6c-0.9-0.5-3.5-1.3-6.4-1.3c-4.4,0-8.4,1.9-8.4,5.6c0,1.3,0.6,2.8,1.9,3.5
		c1,0.7,1.5,0.8,5.9,2.2c2.5,0.8,4.7,1.6,4.7,4c0,1.8-1.6,3.8-5.6,3.8c-3,0-5.2-1.3-6.3-3H91c0,0.4-0.1,1.2-0.7,2.7
		c2,1.1,4.4,1.6,6.9,1.6c6.7,0,9.5-3.4,9.5-6.4c0-1.1-0.4-2.6-2.1-3.7c-1.3-0.8-2-1-6.1-2.2c-1.9-0.6-4.4-1.4-4.4-3.6
		c0-1,0.7-3.3,4.8-3.3c3.5,0,4.7,1.6,5.2,2.7H104.6z"/>
	<path class="st0" d="M124.1,143.4c0,3.9-0.1,8.1-0.4,11.2c0.3-0.1,1.1-0.2,2-0.2c0.3,0,1.1,0,2.4,0.2c-0.4-4.3-0.3-8.8-0.3-12.3
		c0-1.9,0-4,0.1-5.9c4.5,0,6.9,0.2,8,0.4c-0.1-0.3-0.2-0.6-0.2-1c0-0.4,0.1-0.7,0.2-1c-2.4,0.2-6.4,0.2-10.1,0.2
		c-3,0-7.8,0-10.1-0.2c0.1,0.3,0.2,0.5,0.2,1c0,0.4-0.1,0.7-0.2,1c1.7-0.3,4.4-0.4,8.4-0.4C124,138.3,124.1,140.8,124.1,143.4"/>
	<path class="st1" d="M159.2,134.5c-9.2,0-14.5,4.2-14.5,10.3c0,6.4,6,10.2,14.2,10.2c9,0,14.5-4.6,14.5-10.5
		C173.4,138,167.1,134.5,159.2,134.5 M149,144.8c0-6.5,5-9.1,10.1-9.1c2.6,0,6.4,0.8,8.4,3.4c1.3,1.7,1.7,4,1.7,5.5
		c0,5.9-4.2,9.2-10.2,9.2C153.1,153.8,149,150.4,149,144.8"/>
	<path class="st0" d="M191.3,143.4c0-1.5,0-1.9,0-3.7c0-1.7,0-2.2,0.1-3.3c1.6-0.1,2.3-0.1,3.7-0.1c3.3,0,4.6,0.2,6,0.4
		c-0.1-0.3-0.2-0.5-0.2-0.9c0-0.4,0.1-0.7,0.2-1c-1.9,0.1-3.8,0.2-5.7,0.2c-2.6,0-5.2,0-7.9-0.2c0.2,2.8,0.3,6.7,0.3,9.5
		c0,6.2-0.2,8.1-0.4,10.3c2.9-0.1,5.8-0.2,8.7-0.2c1.7,0,3.5,0,5.2,0.2c-0.1-0.3-0.2-0.5-0.2-0.9c0-0.4,0.1-0.7,0.2-1
		c-4.5,0.3-7.5,0.3-9.9,0.3c0-0.8-0.1-3-0.1-4.4c0-1.2,0-2.5,0.1-3.8c0.9,0,2-0.1,3-0.1c1.6,0,3.9,0.1,5.8,0.3
		c0-0.3-0.2-0.6-0.2-0.9c0-0.4,0.1-0.7,0.2-1C197.3,143.5,194.3,143.5,191.3,143.4"/>
	<path class="st0" d="M219.3,143.4c0,3.9-0.1,8.1-0.4,11.2c0.3-0.1,1.1-0.2,2-0.2c0.3,0,1.1,0,2.4,0.2c-0.4-4.3-0.3-8.8-0.3-12.3
		c0-1.9,0-4,0.1-5.9c4.5,0,6.9,0.2,8,0.4c-0.1-0.3-0.2-0.6-0.2-1c0-0.4,0.1-0.7,0.2-1c-2.4,0.2-6.4,0.2-10.1,0.2
		c-3,0-7.8,0-10.1-0.2c0.1,0.3,0.1,0.5,0.1,1c0,0.4-0.1,0.7-0.1,1c1.7-0.3,4.4-0.4,8.4-0.4C219.2,138.3,219.3,140.8,219.3,143.4"/>
	<path class="st0" d="M239.2,154.6c2.9-0.1,5.8-0.2,8.7-0.2c2.1,0,12.4,0.1,13.3,0.2c-0.1-0.4-0.1-0.8-0.1-1.1
		c0-0.5,0.1-0.7,0.1-0.9c-6.4,0.4-11.8,0.4-15.9,0.4c0,0-0.2,0-0.2-0.1c0-0.2,6.4-7.5,16.2-17.7v-0.4c-1.4,0.1-4.9,0.2-9.8,0.2
		c-5.2,0-7.5,0-10.7-0.2c0.1,0.3,0.2,0.5,0.2,1c0,0.4-0.1,0.8-0.2,1.1c3.4-0.4,9.3-0.5,14.8-0.5c-4.3,5-10.8,12.1-14.1,15.5
		c-0.3,0.4-1.9,1.9-2.2,2.2V154.6z"/>
	<path class="st0" d="M50.5,9.3V8.9H92v0.4c-3.4,1.2-9.4,5.2-10,13.1v53.9c0,5.1-1.9,12.4-5.8,18.5C69.7,105,57.3,109.6,46,108.6
		c-13.9-1.2-21.8-9.8-25-15.3c-4.3-7.4-4.8-13.2-3.2-19.8c2-8.1,6.9-12.3,12.9-12.3c6.2,0,10.3,5.3,10.1,10.3
		c-0.2,4.2-3.2,9.6-6.3,13.2c-5.1,6-7,12.4-0.4,16.9c1.5,1,6.1,3.6,11.9,3.6c9.2,0,14.3-7.2,14.7-17.4c0-1.5,0.2-4,0-65.5
		C60.4,18,56.7,12.1,50.5,9.3"/>
	<path class="st1" d="M225.6,12.3c9,0,13.4,10.6,13.4,19.8c0,10.9-5.1,18.4-13.4,18.4H217V12.3H225.6z M230.8,8.9
		c15.1,0,26.8,10.2,26.8,22.5c-0.1,10-8.1,17.8-19.8,20.7c12.4,1.6,26.3,11.2,26.3,27c0,16.4-14.4,26.3-29.7,26.3h-48.2
		c0,0,0-0.4,0-0.4c4.5-2.6,9.4-6.6,9.5-15.9l-0.2-66.8c-0.2-6.9-6.2-12-9.6-13.1c0,0,0-0.4,0-0.4H230.8z M224.1,54.2
		c10.6,0,18.1,11.1,18.1,23.4c0,9.8-5.4,24.1-18.1,24.1H217c0,0,0-47.4,0-47.5H224.1z"/>
</g>
</svg>
